<svg width="17" height="17" viewBox="0 0 17 17" fill="none" xmlns="http://www.w3.org/2000/svg">
<g id="right-from-bracket" clip-path="url(#clip0_21_290)">
<path id="Primary" d="M12.3094 3.80938L16.1469 7.64687C16.3719 7.87187 16.5 8.18125 16.5 8.5C16.5 8.81875 16.3719 9.12812 16.1469 9.35312L12.3094 13.1906C12.1094 13.3906 11.8406 13.5 11.5594 13.5C10.975 13.5 10.5 13.025 10.5 12.4406V10.5H6.5C5.94688 10.5 5.5 10.0531 5.5 9.5V7.5C5.5 6.94688 5.94688 6.5 6.5 6.5H10.5V4.55937C10.5 3.975 10.975 3.5 11.5594 3.5C11.8406 3.5 12.1094 3.6125 12.3094 3.80938ZM5.5 3.5H3.5C2.94688 3.5 2.5 3.94688 2.5 4.5V12.5C2.5 13.0531 2.94688 13.5 3.5 13.5H5.5C6.05312 13.5 6.5 13.9469 6.5 14.5C6.5 15.0531 6.05312 15.5 5.5 15.5H3.5C1.84375 15.5 0.5 14.1562 0.5 12.5V4.5C0.5 2.84375 1.84375 1.5 3.5 1.5H5.5C6.05312 1.5 6.5 1.94687 6.5 2.5C6.5 3.05313 6.05312 3.5 5.5 3.5Z" fill="white" fill-opacity="0.5"/>
</g>
<defs>
<clipPath id="clip0_21_290">
<rect width="16" height="16" fill="white" transform="translate(0.5 0.5)"/>
</clipPath>
</defs>
</svg>
